#!OML:ASF E:/inclinewalkrobotboard/Project1/Captureday1/Session1/subject1.ASF
:FULLY-SPECIFIED
:DEGREES
163
root 0 0 0 -2.468090783401574 -0.7582646380824176 -2.348864160371175
lowerback 10.478949212597744 0.1282511153303154 0.8449977265197779
upperback 0.36241322668625786 0.38420585865422213 1.8939647034904503
thorax -5.395024407098866 0.20153637988582285 1.4563294517031653
lowerneck -17.821693127768356 -2.8208437109654034 -1.5902975724866364
upperneck 20.077749946438047 -3.4631492039859326 -0.08905595891935736
head 9.278177970936728 -1.7027441123832 -0.234392675246077
rclavicle -4.65947008880683E-16 -3.2421054171619707E-16
rhumerus -28.818810391759712 -17.76252883677435 -77.99660908839975
rradius 26.925982017258885
rwrist 4.4489047283151395
rhand -17.721581019235686 22.2887803671704
rfingers 7.1250200000000214
rthumb 8.530087493184574 -7.524609116442463
lclavicle -7.288747150367847E-16 -2.1054171848643186E-16
lhumerus -29.21108851365878 -2.7342120823978995 82.21871115384815
lradius 34.67412796759048
lwrist 5.9087403067458615
lhand -24.921272564606987 24.304000052802174
lfingers 7.123300518581728
lthumb 1.565044077161371 53.69275981362896
rfemur -3.1964671878873965 7.392564350165136 31.117997757067666
rtibia 27.846631574958245
rfoot -13.717874849584684 -5.832838348657871
rtoes 2.873675326524058
lfemur -20.61497019221663 0.8219986371798913 -12.297241308514897
ltibia 55.77569539868868
lfoot 4.5802066670030435 -8.563175297152961
ltoes -5.978232808432329
164
root 0 0 0 -2.3317636739377523 -1.9431709892718043 -3.8825279192088358
lowerback 10.499569545139295 0.8129522536742366 2.545589857744827
upperback 0.3716802771387391 1.484874179113123 1.877146381521022
thorax -5.388239754348481 0.7070990256407728 0.3355854732297976
lowerneck -17.71385168589903 -2.9534448599417447 -1.5007724962561833
upperneck 19.91842841681048 -3.6850723719934178 0.013828905766846589
head 9.219187875216779 -1.790942507167643 -0.2409192388484409
rclavicle -4.839456594225959E-16 -3.204484869737639E-16
rhumerus -28.63368824085028 -17.57620093406991 -77.96754263862124
rradius 27.105707137089677
rwrist 4.483447334042565
rhand -17.749470976594772 22.15287616632321
rfingers 7.12502000000002
rthumb 8.503252201396329 -7.657804958426912
lclavicle -7.32291490776011E-16 -2.1163280431442775E-16
lhumerus -29.31585079499014 -2.6103446064319726 82.2235524418055
lradius 34.44201861961604
lwrist 5.8888862445604895
lhand -24.989511443184522 24.264891550973463
lfingers 7.123372436308606
lthumb 1.5013656927736037 53.673132353209596
rfemur -2.75199329216208 7.537637997492758 31.334540003953638
rtibia 27.139537192568103
rfoot -14.09087794867587 -5.844810286063727
rtoes 2.7511085317163975
lfemur -21.24331202850661 0.5020381312381463 -12.167030845852485
ltibia 53.50911679154583
lfoot 3.2910605507112116 -7.120381458422036
ltoes -5.5326535929443725
165
root 0 0 0 -2.170545874227505 -4.148248031260005 -5.749589650532069
lowerback 10.494842378596294 1.7882514805697811 4.627919101105643
upperback 0.4393180662761105 3.0073305980887395 1.7534656075649724
thorax -5.298197521797596 1.4018008363496668 -1.174429394965357
lowerneck -17.27243130836638 -3.180010153604591 -1.523168791584534
upperneck 19.441127128512235 -4.076934298982659 0.4262276026180629
head 9.000858757680266 -1.954833805202259 -0.12870586712135568
rclavicle -5.10415450352254E-16 -2.973672475940855E-16
rhumerus -28.435576994352555 -17.389283049094033 -77.93205452412627
rradius 27.2913807880117
rwrist 4.5202711948100145
rhand -17.78352387466574 22.012047877083187
rfingers 7.125020000000017
rthumb 8.472596487506777 -7.7956252056669975
lclavicle -7.191939523029069E-16 -2.012322825477329E-16
lhumerus -29.692402433596325 -2.201083849380435 82.25093971407588
lradius 33.651460133119535
lwrist 5.807686685209768
lhand -25.22271679975365 24.119509471306387
lfingers 7.123535526272706
lthumb 1.2794782900111699 53.60791145910137
rfemur -2.2825005644363934 7.710770957823986 31.566870891536226
rtibia 26.215029487259013
rfoot -14.531611008847616 -5.873779050309001
rtoes 2.530861046198126
lfemur -21.55478327869735 -0.2565428539780783 -12.50823281694943
ltibia 47.865052355846274
lfoot 0.44203336630529577 -4.379676977844252
ltoes -4.493477544229591
166
root 0 0 0 -2.1486587540063296 -4.663623140675821 -6.037346199037598
lowerback 10.48734782971953 1.9649071527332715 4.949943508145498
upperback 0.4715114655620227 3.2758734921197505 1.7084468898041871
thorax -5.258916622458067 1.5237418928330166 -1.4405443564444236
lowerneck -17.096494345100133 -3.223286230243918 -1.5682941883672665
upperneck 19.28170927255993 -4.157087524677201 0.5634624295500483
head 8.925429566429095 -1.9885360264279148 -0.07868428267850014
rclavicle -5.117841729612387E-16 -2.948059901920458E-16
rhumerus -28.528021210438123 -17.47972097845271 -77.95513727999752
rradius 27.191176861779464
rwrist 4.497465815130097
rhand -17.768153198700873 22.085192158573395
rfingers 7.125020000000019
rthumb 8.488011507221572 -7.724141413683341
lclavicle -6.892047537282945E-16 -1.9638692017622638E-16
lhumerus -29.93754886037669 -1.9393170650438378 82.27177510507933
lradius 33.13815382039642
lwrist 5.754130187196875
lhand -25.37636527440125 24.025581116855488
lfingers 7.123650960254001
lthumb 1.1326541463906086 53.570508071142356
rfemur -2.3188032492855157 7.803508500170672 31.467328185662986
rtibia 25.83707074099882
rfoot -14.726683221648049 -5.961063784712215
rtoes 2.2453122725147914
lfemur -20.71392680438379 -0.7688064794897269 -13.225245826085025
ltibia 43.870996114987584
lfoot -1.5612692673962716 -2.877509907041519
ltoes -3.960215025691925
